<mxfile host="app.diagrams.net" modified="2023-12-31T17:42:40.734Z" agent="Mozilla/5.0 (Windows NT 10.0; Win64; x64) AppleWebKit/537.36 (KHTML, like Gecko) Chrome/120.0.0.0 Safari/537.36" etag="9UlWfMgoWk76XDujK2Mq" version="22.1.16" type="device">
  <diagram name="Page-1" id="fYJ-loWtTyeQgB2ZVI-i">
    <mxGraphModel dx="778" dy="737" grid="1" gridSize="10" guides="1" tooltips="1" connect="1" arrows="1" fold="1" page="1" pageScale="1" pageWidth="850" pageHeight="1100" math="0" shadow="0">
      <root>
        <mxCell id="0" />
        <mxCell id="1" parent="0" />
      </root>
    </mxGraphModel>
  </diagram>
</mxfile>
